<svg width="23" height="80" viewBox="0 0 23 80" fill="none" xmlns="http://www.w3.org/2000/svg">
<g id="Group 113 --&#62; Group 114">
<path d="M11.7363 1.5C9.23633 1.5 7.23633 3.5 7.23633 6C7.23633 8.5 9.23633 10.5 11.7363 10.5C14.2363 10.5 16.2363 8.5 16.2363 6C16.2363 3.5 14.2363 1.5 11.7363 1.5Z" fill="white"/>
<path d="M10.6757 79.0607C11.2615 79.6464 12.2112 79.6464 12.797 79.0607L22.3429 69.5147C22.9287 68.9289 22.9287 67.9792 22.3429 67.3934C21.7571 66.8076 20.8074 66.8076 20.2216 67.3934L11.7363 75.8787L3.25105 67.3934C2.66526 66.8076 1.71551 66.8076 1.12973 67.3934C0.54394 67.9792 0.54394 68.9289 1.12973 69.5147L10.6757 79.0607ZM8.73633 6C8.73633 4.32843 10.0648 3 11.7363 3V0C8.4079 0 5.73633 2.67157 5.73633 6H8.73633ZM11.7363 3C13.4079 3 14.7363 4.32843 14.7363 6H17.7363C17.7363 2.67157 15.0648 0 11.7363 0V3ZM14.7363 6C14.7363 7.67157 13.4079 9 11.7363 9V12C15.0648 12 17.7363 9.32843 17.7363 6H14.7363ZM11.7363 9C10.0648 9 8.73633 7.67157 8.73633 6H5.73633C5.73633 9.32843 8.4079 12 11.7363 12V9ZM10.2363 10.5V78H13.2363V10.5H10.2363Z" fill="#5EAED2"/>
</g>
</svg>
