<svg width="110" height="114" viewBox="0 0 110 114" fill="none" xmlns="http://www.w3.org/2000/svg">
<g id="Group 111 --&#62; Group 113">
<path d="M6.21094 1.5C3.71094 1.5 1.71094 3.5 1.71094 6C1.71094 8.5 3.71094 10.5 6.21094 10.5C8.71094 10.5 10.7109 8.5 10.7109 6C10.7109 3.5 8.71094 1.5 6.21094 1.5Z" fill="white"/>
<path d="M97.6746 113.061C98.2604 113.646 99.2101 113.646 99.7959 113.061L109.342 103.515C109.928 102.929 109.928 101.979 109.342 101.393C108.756 100.808 107.806 100.808 107.221 101.393L98.7353 109.879L90.25 101.393C89.6642 100.808 88.7144 100.808 88.1287 101.393C87.5429 101.979 87.5429 102.929 88.1287 103.515L97.6746 113.061ZM3.21094 6C3.21094 4.32843 4.53936 3 6.21094 3V0C2.88251 0 0.210938 2.67157 0.210938 6H3.21094ZM6.21094 3C7.88251 3 9.21094 4.32843 9.21094 6H12.2109C12.2109 2.67157 9.53936 0 6.21094 0V3ZM9.21094 6C9.21094 7.67157 7.88251 9 6.21094 9V12C9.53936 12 12.2109 9.32843 12.2109 6H9.21094ZM6.21094 9C4.53936 9 3.21094 7.67157 3.21094 6H0.210938C0.210938 9.32843 2.88251 12 6.21094 12V9ZM10.7109 7.5H88.7353V4.5H10.7109V7.5ZM97.2353 16V112H100.235V16H97.2353ZM88.7353 7.5C93.4297 7.5 97.2353 11.3056 97.2353 16H100.235C100.235 9.64873 95.0865 4.5 88.7353 4.5V7.5Z" fill="#5EAED2"/>
</g>
</svg>
