<svg width="111" height="114" viewBox="0 0 111 114" fill="none" xmlns="http://www.w3.org/2000/svg">
<g id="Group 111 --&#62; Group 112">
<path d="M105.001 1.5C102.501 1.5 100.501 3.5 100.501 6C100.501 8.5 102.501 10.5 105.001 10.5C107.501 10.5 109.501 8.5 109.501 6C109.501 3.5 107.501 1.5 105.001 1.5Z" fill="white"/>
<path d="M10.6757 113.061C11.2615 113.646 12.2112 113.646 12.797 113.061L22.3429 103.515C22.9287 102.929 22.9287 101.979 22.3429 101.393C21.7571 100.808 20.8074 100.808 20.2216 101.393L11.7363 109.879L3.25105 101.393C2.66526 100.808 1.71551 100.808 1.12973 101.393C0.54394 101.979 0.54394 102.929 1.12973 103.515L10.6757 113.061ZM102.001 6C102.001 4.32843 103.329 3 105.001 3V0C101.672 0 99.0008 2.67157 99.0008 6H102.001ZM105.001 3C106.672 3 108.001 4.32843 108.001 6H111.001C111.001 2.67157 108.329 0 105.001 0V3ZM108.001 6C108.001 7.67157 106.672 9 105.001 9V12C108.329 12 111.001 9.32843 111.001 6H108.001ZM105.001 9C103.329 9 102.001 7.67157 102.001 6H99.0008C99.0008 9.32843 101.672 12 105.001 12V9ZM100.501 4.5H21.7363V7.5H100.501V4.5ZM10.2363 16V112H13.2363V16H10.2363ZM21.7363 4.5C15.3851 4.5 10.2363 9.64872 10.2363 16H13.2363C13.2363 11.3056 17.0419 7.5 21.7363 7.5V4.5Z" fill="#5EAED2"/>
</g>
</svg>
