<svg width="142" height="24" viewBox="0 0 142 24" fill="none" xmlns="http://www.w3.org/2000/svg">
<g id="Rectangle 54 --&#62; Group 247">
<path d="M136 7.32031C133.5 7.32031 131.5 9.32031 131.5 11.8203C131.5 14.3203 133.5 16.3203 136 16.3203C138.5 16.3203 140.5 14.3203 140.5 11.8203C140.5 9.32031 138.5 7.32031 136 7.32031Z" fill="white"/>
<path d="M0.93934 10.9393C0.353553 11.5251 0.353553 12.4749 0.93934 13.0607L10.4853 22.6066C11.0711 23.1924 12.0208 23.1924 12.6066 22.6066C13.1924 22.0208 13.1924 21.0711 12.6066 20.4853L4.12132 12L12.6066 3.51472C13.1924 2.92893 13.1924 1.97918 12.6066 1.3934C12.0208 0.807612 11.0711 0.807612 10.4853 1.3934L0.93934 10.9393ZM133 11.8203C133 10.1487 134.328 8.82031 136 8.82031V5.82031C132.672 5.82031 130 8.49189 130 11.8203H133ZM136 8.82031C137.672 8.82031 139 10.1487 139 11.8203H142C142 8.49189 139.328 5.82031 136 5.82031V8.82031ZM139 11.8203C139 13.4919 137.672 14.8203 136 14.8203V17.8203C139.328 17.8203 142 15.1487 142 11.8203H139ZM136 14.8203C134.328 14.8203 133 13.4919 133 11.8203H130C130 15.1487 132.672 17.8203 136 17.8203V14.8203ZM131.5 10.3203H69.0898V13.3203H131.5V10.3203ZM68.9102 10.5H2V13.5H68.9102V10.5ZM67.5 11.9102C67.5 11.1314 68.1313 10.5 68.9102 10.5V13.5C69.7882 13.5 70.5 12.7882 70.5 11.9102H67.5ZM69.0898 10.3203C68.2118 10.3203 67.5 11.0321 67.5 11.9102H70.5C70.5 12.6889 69.8687 13.3203 69.0898 13.3203V10.3203Z" fill="#5EAED2"/>
</g>
</svg>
