<svg width="92" height="80" viewBox="0 0 92 80" fill="none" xmlns="http://www.w3.org/2000/svg">
<g id="house-chimney-user-solid 1" clip-path="url(#clip0_285_3496)">
<path id="Vector" d="M86.0432 44.9375C88.7043 44.9375 91.0524 42.75 91.0524 39.9219C91.2089 38.5156 90.5828 37.2656 89.3305 36.1719L81.0653 28.9062V10C81.0653 7.23438 78.8268 5 76.0561 5H71.0469C68.2762 5 66.0377 7.23438 66.0377 10V15.7344L49.3664 1.09375C48.4272 0.3125 47.1749 0 46.0791 0C44.9833 0 43.731 0.15625 42.6353 1.25L2.48335 36.1719C1.38758 37.2656 0.917969 38.5156 0.917969 39.9219C0.917969 42.7344 3.1095 44.9375 5.92718 44.9375H10.9364V70C10.9364 75.5156 15.429 80 20.9548 80H71.1252C76.6822 80 81.1749 75.5 81.1436 69.9531L81.034 44.9219H86.0432V44.9375ZM46.0008 25C48.6579 25 51.2061 26.0536 53.0849 27.9289C54.9637 29.8043 56.0193 32.3478 56.0193 35C56.0193 37.6522 54.9637 40.1957 53.0849 42.0711C51.2061 43.9464 48.6579 45 46.0008 45C43.3438 45 40.7956 43.9464 38.9168 42.0711C37.0379 40.1957 35.9824 37.6522 35.9824 35C35.9824 32.3478 37.0379 29.8043 38.9168 27.9289C40.7956 26.0536 43.3438 25 46.0008 25ZM28.4686 62.5C28.4686 55.5938 34.0727 50 40.9916 50H51.0101C57.929 50 63.5331 55.5938 63.5331 62.5C63.5331 63.875 62.406 65 61.0285 65H30.9732C29.5957 65 28.4686 63.875 28.4686 62.5Z" fill="url(#paint0_linear_285_3496)"/>
</g>
<defs>
<linearGradient id="paint0_linear_285_3496" x1="0.91797" y1="7" x2="68.0372" y2="97.1526" gradientUnits="userSpaceOnUse">
<stop stop-color="#FBDF97"/>
<stop offset="0.489583" stop-color="#FCB603"/>
<stop offset="1" stop-color="#FF7C02"/>
</linearGradient>
<clipPath id="clip0_285_3496">
<rect width="90.1657" height="80" fill="white" transform="translate(0.917969)"/>
</clipPath>
</defs>
</svg>
