<svg width="70" height="80" viewBox="0 0 70 80" fill="none" xmlns="http://www.w3.org/2000/svg">
<path id="Vector" d="M35 40C40.3043 40 45.3914 37.8929 49.1421 34.1421C52.8929 30.3914 55 25.3043 55 20C55 14.6957 52.8929 9.60859 49.1421 5.85786C45.3914 2.10714 40.3043 0 35 0C29.6957 0 24.6086 2.10714 20.8579 5.85786C17.1071 9.60859 15 14.6957 15 20C15 25.3043 17.1071 30.3914 20.8579 34.1421C24.6086 37.8929 29.6957 40 35 40ZM20 48.625C8.4375 52.0156 0 62.7031 0 75.3594C0 77.9219 2.07812 80 4.64062 80H65.3594C67.9219 80 70 77.9219 70 75.3594C70 62.7031 61.5625 52.0156 50 48.625V56.5625C54.3125 57.6719 57.5 61.5938 57.5 66.25V72.5C57.5 73.875 56.375 75 55 75H52.5C51.125 75 50 73.875 50 72.5C50 71.125 51.125 70 52.5 70V66.25C52.5 63.4844 50.2656 61.25 47.5 61.25C44.7344 61.25 42.5 63.4844 42.5 66.25V70C43.875 70 45 71.125 45 72.5C45 73.875 43.875 75 42.5 75H40C38.625 75 37.5 73.875 37.5 72.5V66.25C37.5 61.5938 40.6875 57.6719 45 56.5625V47.6406C44.0625 47.5469 43.1094 47.5 42.1406 47.5H27.8594C26.8906 47.5 25.9375 47.5469 25 47.6406V57.8594C28.6094 58.9375 31.25 62.2812 31.25 66.25C31.25 71.0781 27.3281 75 22.5 75C17.6719 75 13.75 71.0781 13.75 66.25C13.75 62.2812 16.3906 58.9375 20 57.8594V48.625ZM22.5 70C23.4946 70 24.4484 69.6049 25.1517 68.9016C25.8549 68.1984 26.25 67.2446 26.25 66.25C26.25 65.2554 25.8549 64.3016 25.1517 63.5984C24.4484 62.8951 23.4946 62.5 22.5 62.5C21.5054 62.5 20.5516 62.8951 19.8483 63.5984C19.1451 64.3016 18.75 65.2554 18.75 66.25C18.75 67.2446 19.1451 68.1984 19.8483 68.9016C20.5516 69.6049 21.5054 70 22.5 70Z" fill="url(#paint0_linear_287_3660)"/>
<defs>
<linearGradient id="paint0_linear_287_3660" x1="8.31857e-07" y1="7" x2="70" y2="80" gradientUnits="userSpaceOnUse">
<stop stop-color="#FBDF97"/>
<stop offset="0.489583" stop-color="#FCB603"/>
<stop offset="1" stop-color="#FF7C02"/>
</linearGradient>
</defs>
</svg>
