<svg width="100" height="80" viewBox="0 0 100 80" fill="none" xmlns="http://www.w3.org/2000/svg">
<g id="comments-regular 1" clip-path="url(#clip0_285_3494)">
<path id="Vector" d="M13.8797 48.2969C15.4068 45.4375 14.9393 41.9219 12.7111 39.5781C9.39206 36.0781 7.61569 31.875 7.61569 27.5C7.61569 17.5781 17.5571 7.5 32.5472 7.5C47.5373 7.5 57.4787 17.5781 57.4787 27.5C57.4787 37.4219 47.5373 47.5 32.5472 47.5C30.5059 47.5 28.527 47.2969 26.6571 46.9375C25.0366 46.625 23.3537 46.8438 21.8734 47.5938C21.2345 47.9219 20.5801 48.2344 19.91 48.5312C17.4169 49.6562 14.7835 50.6406 12.1345 51.3438C12.5708 50.625 12.976 49.9219 13.3655 49.2188C13.5369 48.9219 13.7083 48.6094 13.8641 48.2969H13.8797ZM0.136239 27.5C0.136239 34.0312 2.81638 40.0156 7.28847 44.7344C7.14823 45 6.9924 45.2812 6.85216 45.5312C5.2472 48.4062 3.37733 51.2344 1.14908 53.6719C0.120657 54.7656 -0.144241 56.3594 0.4323 57.7188C1.04001 59.1094 2.38007 60 3.87596 60C10.5763 60 17.3546 57.9219 22.9953 55.3594C23.7433 55.0156 24.4912 54.6562 25.208 54.2969C27.5609 54.7656 30.0229 55 32.5472 55C50.4511 55 64.9582 42.6875 64.9582 27.5C64.9582 12.3125 50.4511 0 32.5472 0C14.6433 0 0.136239 12.3125 0.136239 27.5ZM67.4513 75C69.9756 75 72.422 74.75 74.7905 74.2969C75.5073 74.6562 76.2552 75.0156 77.0032 75.3594C82.6439 77.9219 89.4222 80 96.1225 80C97.6184 80 98.9585 79.1094 99.5506 77.7344C100.143 76.3594 99.8623 74.7656 98.8338 73.6875C96.6212 71.25 94.7513 68.4219 93.1308 65.5469C92.9905 65.2812 92.8347 65.0156 92.6945 64.75C97.1821 60.0156 99.8623 54.0312 99.8623 47.5C99.8623 32.75 86.1655 20.7031 68.9784 20.0312C69.6172 22.4062 69.9445 24.9062 69.9445 27.5V27.5938C83.5321 28.6406 92.3828 38.1406 92.3828 47.5C92.3828 51.875 90.6064 56.0781 87.2874 59.5625C85.0592 61.9062 84.5917 65.4375 86.1188 68.2812C86.2902 68.5938 86.4616 68.9062 86.6174 69.2031C87.007 69.9062 87.4277 70.6094 87.8484 71.3281C85.1994 70.625 82.566 69.6562 80.0729 68.5156C79.4028 68.2188 78.7484 67.9062 78.1095 67.5781C76.6292 66.8281 74.9464 66.6094 73.3258 66.9219C71.4404 67.2969 69.477 67.4844 67.4357 67.4844C57.8215 67.4844 50.2953 63.3438 46.1193 57.75C43.6261 58.5938 41.0083 59.2188 38.3282 59.5938C43.6106 68.7188 54.6739 75 67.4513 75Z" fill="url(#paint0_linear_285_3494)"/>
</g>
<defs>
<linearGradient id="paint0_linear_285_3494" x1="0.132814" y1="7" x2="65.0402" y2="103.437" gradientUnits="userSpaceOnUse">
<stop stop-color="#FBDF97"/>
<stop offset="0.489583" stop-color="#FCB603"/>
<stop offset="1" stop-color="#FF7C02"/>
</linearGradient>
<clipPath id="clip0_285_3494">
<rect width="99.726" height="80" fill="white" transform="translate(0.136719)"/>
</clipPath>
</defs>
</svg>
