<svg width="100" height="80" viewBox="0 0 100 80" fill="none" xmlns="http://www.w3.org/2000/svg">
<path id="Vector" d="M36.2874 0C30.0857 0 25.0682 5.03125 25.0682 11.25V12.5H11.3559C5.15418 12.5 0.136719 17.5312 0.136719 23.75V68.75C0.136719 74.9688 5.15418 80 11.3559 80H11.3871H11.4182H11.4494H11.4806H11.5117H11.5429H11.574H11.6052H11.6364H11.6675H11.6987H11.7299H11.761H11.7922H11.8234H11.8545H11.8857H11.9169H11.948H11.9792H12.0103H12.0415H12.0727H12.1038H12.135H12.1662H12.1973H12.2285H12.2597H12.2908H12.322H12.3532H12.3843H12.4155H12.4467H12.4778H12.509H12.5401H12.5713H12.6025H12.6336H12.6648H12.696H12.7271H12.7583H12.7895H12.8206H12.8518H12.883H12.9141H12.9453H12.9764H13.0076H13.0388H13.0699H13.1011H13.1323H13.1634H13.1946H13.2258H13.2569H13.2881H13.3193H13.3504H13.3816H13.4127H13.4439H13.4751H13.5062H13.5374H13.5686H13.5997H13.6309H13.6621H13.6932H13.7244H13.7556H13.7867H13.8179H13.849H13.8802H13.9114H13.9425H13.9737H14.0049H14.036H14.0672H14.0984H14.1295H14.1607H14.1919H14.223H14.2542H14.2853H14.3165H14.3477H14.3788H14.41H14.4412H14.4723H14.5035H14.5347H14.5658H14.597H14.6282H14.6593H14.6905H14.7217H14.7528H14.784H14.8151H14.8463H14.8775H14.9086H14.9398H14.971H15.0021H15.0333H15.0645H15.0956H15.1268H15.158H15.1891H15.2203H15.2514H15.2826H15.3138H15.3449H15.3761H15.4073H15.4384H15.4696H15.5008H15.5319H15.5631H15.5943H15.6254H15.6566H15.6877H15.7189H15.7501H15.7812H15.8124H15.8436H15.8747H15.9059H15.9371H15.9682H15.9994H16.0306H16.0617H16.0929H16.124H16.1552H16.1864H16.2175H16.2487H16.2799H16.311H16.3422H16.3734H16.4045H16.4357H16.4669H16.498H16.5292H16.5603H16.5915H16.6227H16.6538H16.685H16.7162H16.7473H16.7785H16.8097H16.8408H16.872H16.9032H16.9343H16.9655H16.9967H17.0278H17.059H17.0901H17.1213H17.1525H17.1836H17.2148H17.246H17.2771H17.3083H17.3395H17.3706H17.4018H17.433H17.4641H17.4953H17.5264H17.5576H17.5888H17.6199H17.6511H17.6823H17.7134H17.7446H17.7758H17.8069H17.8381H17.8693H17.9004H17.9316H17.9627H17.9939H18.0251H18.0562H18.0874H18.1186H18.1497H18.1809H18.2121H18.2432H18.2744H18.3056H18.3367H18.3679H18.399H18.4302H18.4614H18.4925H18.5237H18.5549H18.586H18.6172H18.6484H18.6795H18.7107H18.7419H18.773H18.8042H18.8354H18.8665H18.8977H18.9288H18.96H18.9912H19.0223H19.0535H19.0847H19.1158H19.147H19.1782H19.2093H19.2405H19.2717H19.3028H19.334H19.3651H19.3963H19.4275H19.4586H19.4898H19.521H19.5521H19.5833H19.6145H19.6456H19.6768H19.708H19.7391H19.7703H19.8014H19.8326H19.8638H19.8949H19.9261H19.9573H19.9884H20.0196H20.0508H20.0819H20.1131H20.1443H20.1754H20.2066H20.2377H20.2689H20.3001H20.3312H20.3624H20.3936H20.4247H20.4559H20.4871H20.5182H20.5494H20.5806H20.6117H20.6429H20.674H20.7052H20.7364H20.7675H20.7987H20.8299H20.861H20.8922H20.9234H20.9545H20.9857H21.0169H21.048H21.0792H21.1104H21.1415H21.1727H21.2038H21.235H21.2662H21.2973H21.3285H21.3597H21.3908H21.422H21.4532H21.4843H21.5155H21.5466H21.5778H21.609H21.6401H21.6713H21.7025H21.7336H21.7648H21.796H21.8271H21.8583H21.8895H21.9206H21.9518H21.983H22.0141H22.0453H22.0764H22.1076H22.1388H22.1699H22.2011H22.2323H22.2634H22.2946H22.3258H22.3569H22.3881H22.4193H22.4504H22.4816H22.5127H22.5439H22.5751H22.6062H22.6374H22.6686H22.6997H22.7309H22.7621H22.7932H22.8244H22.8556H22.8867H22.9179H22.949H22.9802H23.0114H23.0425H23.0737H23.1049H23.136H23.1672H23.1984H23.2295H23.2607H23.2919H23.323H23.3542H23.3854H23.4165H23.4477H23.4788H23.51H23.5412H23.5723H23.6035H23.6347H23.6658H23.697H23.7282H23.7593H23.7905H23.8217H23.8528H23.884H23.9151H23.9463H23.9775H24.0086H24.0398H24.071H24.1021H24.1333H24.1645H24.1956H24.2268H24.258H24.2891H24.3203H24.3514H24.3826H24.4138H24.4449H24.4761H24.5073H24.5384H24.5696H24.6008H24.6319H24.6631H24.6943H24.7254H24.7566H24.7877H24.8189H24.8501H24.8812H24.9124H24.9436H24.9747H25.0059H25.0371H25.0682H25.0994H25.1306H25.1617H25.1929H25.224H25.2552H25.2864H25.3175H25.3487H25.3799H25.411H25.4422H25.4734H25.5045H25.5357H25.5669H25.598H25.6292H25.6603H25.6915H25.7227H25.7538H25.785H25.8162H25.8473H25.8785H25.9097H25.9408H25.972H26.0032H26.0343H26.0655H26.0967H26.1278H26.159H26.1901H26.2213H26.2525H26.2836H26.3148H26.346H26.3771H26.4083H26.4395H26.4706H26.5018H26.533H26.5641H26.5953H26.6264H26.6576H26.6888H26.7199H26.7511H26.7823H26.8134H26.8446H26.8758H26.9069H26.9381H26.9693H27.0004H27.0316H27.0627H27.0939H27.1251H71.1915H72.4381H88.6436C94.8453 80 99.8627 74.9688 99.8627 68.75V23.75C99.8627 17.5312 94.8453 12.5 88.6436 12.5H74.9312V11.25C74.9312 5.03125 69.9138 0 63.7121 0H36.2874ZM74.9312 20H88.6436C90.716 20 92.3833 21.6719 92.3833 23.75V30H83.6573C81.5848 30 79.9175 31.6719 79.9175 33.75C79.9175 35.8281 81.5848 37.5 83.6573 37.5H92.3833V45H83.6573C81.5848 45 79.9175 46.6719 79.9175 48.75C79.9175 50.8281 81.5848 52.5 83.6573 52.5H92.3833V68.75C92.3833 70.8281 90.716 72.5 88.6436 72.5H74.9312V52.5V20ZM11.3559 20H25.0682V72.5H25.0526H25.0215H24.9903H24.9592H24.9124H24.8812H24.8501H24.8189H24.7566H24.7254H24.6943H24.6631H24.6319H24.6008H24.5696H24.5384H24.5073H24.4761H24.4449H24.4138H24.3826H24.3514H24.3203H24.2891H24.258H24.1333H24.1021H24.071H24.0398H23.9775H23.9463H23.9151H23.884H23.8528H23.8217H23.7905H23.7593H23.7282H23.697H23.6658H23.6347H23.6035H23.51H23.4788H23.4477H23.4165H23.3542H23.323H23.2919H23.2607H23.2295H23.1984H23.1672H23.136H23.1049H23.0737H23.0425H23.0114H22.9802H22.8867H22.8556H22.8244H22.7932H22.7309H22.6997H22.6686H22.6374H22.6062H22.5751H22.5439H22.5127H22.4816H22.4504H22.4193H22.3881H22.3569H22.2634H22.2323H22.2011H22.1699H22.1388H22.1076H22.0764H22.0453H22.0141H21.983H21.9518H21.9206H21.8895H21.796H21.7648H21.7336H21.7025H21.6713H21.6401H21.609H21.5778H21.5466H21.5155H21.4843H21.4532H21.422H21.3285H21.2973H21.2662H21.235H21.2038H21.1727H21.1415H21.1104H21.0792H21.048H21.0169H20.9857H20.9545H20.861H20.8299H20.7987H20.7675H20.7364H20.7052H20.674H20.6429H20.6117H20.5494H20.5182H20.4871H20.4559H20.4247H20.3936H20.3624H20.3312H20.3001H20.2689H20.2377H20.2066H20.1754H20.0819H20.0508H20.0196H19.9884H19.9573H19.9261H19.8949H19.8638H19.8326H19.7703H19.7391H19.708H19.6768H19.6456H19.6145H19.5833H19.5521H19.521H19.4586H19.4275H19.3963H19.3651H19.334H19.3028H19.2717H19.2405H19.2093H19.147H19.1158H19.0847H19.0535H19.0223H18.9912H18.96H18.9288H18.8977H18.8354H18.8042H18.773H18.7419H18.7107H18.6795H18.6484H18.6172H18.586H18.5237H18.4925H18.4614H18.4302H18.399H18.3679H18.3367H18.3056H18.2744H18.2121H18.1809H18.1497H18.1186H18.0874H18.0562H18.0251H17.9939H17.9627H17.9004H17.8693H17.8381H17.8069H17.7758H17.7446H17.7134H17.6823H17.6511H17.6199H17.5888H17.5576H17.5264H17.4953H17.433H17.4018H17.3706H17.3395H17.3083H17.2771H17.246H17.2148H17.1836H17.1525H17.1213H17.0901H17.059H17.0278H16.9655H16.9343H16.9032H16.872H16.8408H16.8097H16.7785H16.7473H16.7162H16.685H16.6538H16.6227H16.5915H16.5603H16.498H16.4669H16.4357H16.4045H16.3734H16.3422H16.311H16.2799H16.2487H16.2175H16.1864H16.1552H16.124H16.0929H16.0617H16.0306H15.9994H15.9682H15.9371H15.9059H15.8747H15.8436H15.8124H15.7812H15.7189H15.6877H15.6566H15.6254H15.5943H15.5631H15.5319H15.5008H15.4696H15.4384H15.4073H15.3761H15.3449H15.3138H15.2826H15.2514H15.2203H15.1891H15.158H15.1268H15.0956H15.0645H15.0333H15.0021H14.971H14.9398H14.9086H14.8775H14.8463H14.8151H14.784H14.7528H14.7217H14.6905H14.6593H14.6282H14.597H14.5658H14.5347H14.5035H14.4723H14.4412H14.41H14.3788H14.3477H14.3165H14.2853H14.2542H14.223H14.1919H14.1607H14.1295H14.0984H14.0672H14.036H14.0049H13.9737H13.9425H13.9114H13.8802H13.849H13.8179H13.7867H13.7556H13.7244H13.6932H13.6621H13.6309H13.5997H13.5686H13.5374H13.5062H13.4751H13.4439H13.4127H13.3816H13.3504H13.3193H13.2881H13.2569H13.2258H13.1946H13.1634H13.1323H13.1011H13.0699H13.0388H13.0076H12.9764H12.9453H12.9141H12.883H12.8518H12.8206H12.7895H12.7583H12.7271H12.696H12.6648H12.6336H12.6025H12.5713H12.5401H12.509H12.4778H12.4467H12.4155H12.3843H12.3532H12.322H12.2908H12.2597H12.2285H12.1973H12.1662H12.135H12.1038H12.0727H12.0415H12.0103H11.9792H11.948H11.9169H11.8857H11.8545H11.8234H11.7922H11.761H11.7299H11.6987H11.6675H11.6364H11.6052H11.574H11.5429H11.5117H11.4806H11.4494H11.4182H11.3871H11.3559C9.29905 72.5 7.61617 70.8281 7.61617 68.75V52.5H16.3422C18.4146 52.5 20.0819 50.8281 20.0819 48.75C20.0819 46.6719 18.4146 45 16.3422 45H7.61617V37.5H16.3422C18.4146 37.5 20.0819 35.8281 20.0819 33.75C20.0819 31.6719 18.4146 30 16.3422 30H7.61617V23.75C7.61617 21.6719 9.28347 20 11.3559 20ZM32.5477 11.25C32.5477 9.17187 34.215 7.5 36.2874 7.5H63.7121C65.7845 7.5 67.4518 9.17187 67.4518 11.25V52.5V72.5H57.4792V62.5C57.4792 58.3594 54.129 55 49.9997 55C45.8705 55 42.5203 58.3594 42.5203 62.5V72.5H32.5477V11.25ZM46.26 15V18.75H42.5203C41.149 18.75 40.0271 19.875 40.0271 21.25V23.75C40.0271 25.125 41.149 26.25 42.5203 26.25H46.26V30C46.26 31.375 47.3819 32.5 48.7532 32.5H51.2463C52.6175 32.5 53.7395 31.375 53.7395 30V26.25H57.4792C58.8504 26.25 59.9723 25.125 59.9723 23.75V21.25C59.9723 19.875 58.8504 18.75 57.4792 18.75H53.7395V15C53.7395 13.625 52.6175 12.5 51.2463 12.5H48.7532C47.3819 12.5 46.26 13.625 46.26 15Z" fill="url(#paint0_linear_285_3493)"/>
<defs>
<linearGradient id="paint0_linear_285_3493" x1="0.13672" y1="7" x2="65.0449" y2="103.435" gradientUnits="userSpaceOnUse">
<stop stop-color="#FBDF97"/>
<stop offset="0.489583" stop-color="#FCB603"/>
<stop offset="1" stop-color="#FF7C02"/>
</linearGradient>
</defs>
</svg>
