<svg width="100" height="80" viewBox="0 0 100 80" fill="none" xmlns="http://www.w3.org/2000/svg">
<g id="house-medical-flag-solid 1" clip-path="url(#clip0_285_3490)">
<path id="Vector" d="M74.9507 0C77.7108 0 79.9408 2.23438 79.9408 5H97.4061C98.7784 5 99.9012 6.125 99.9012 7.5V27.5C99.9012 28.875 98.7784 30 97.4061 30H79.9408V80H69.9606V30V5C69.9606 2.23438 72.1905 0 74.9507 0ZM43.2635 6.20312L64.9705 24.8438V80H65.1264H65.0952H15.0695C12.3093 80 10.0794 77.7656 10.0794 75V45H5.08928C2.99968 45 1.12839 43.7031 0.411063 41.7344C-0.306264 39.7656 0.255122 37.5625 1.84572 36.2031L36.7764 6.20312C38.6477 4.59375 41.4078 4.59375 43.2791 6.20312H43.2635ZM35.0299 32.5V40H27.5447C26.1724 40 25.0497 41.125 25.0497 42.5V47.5C25.0497 48.875 26.1724 50 27.5447 50H35.0299V57.5C35.0299 58.875 36.1526 60 37.5249 60H42.515C43.8873 60 45.0101 58.875 45.0101 57.5V50H52.4952C53.8675 50 54.9903 48.875 54.9903 47.5V42.5C54.9903 41.125 53.8675 40 52.4952 40H45.0101V32.5C45.0101 31.125 43.8873 30 42.515 30H37.5249C36.1526 30 35.0299 31.125 35.0299 32.5Z" fill="url(#paint0_linear_285_3490)"/>
</g>
<defs>
<linearGradient id="paint0_linear_285_3490" x1="0.103517" y1="7" x2="64.9942" y2="103.478" gradientUnits="userSpaceOnUse">
<stop stop-color="#FBDF97"/>
<stop offset="0.489583" stop-color="#FCB603"/>
<stop offset="1" stop-color="#FF7C02"/>
</linearGradient>
<clipPath id="clip0_285_3490">
<rect width="99.802" height="80" fill="white" transform="translate(0.0996094)"/>
</clipPath>
</defs>
</svg>
