<svg width="90" height="80" viewBox="0 0 90 80" fill="none" xmlns="http://www.w3.org/2000/svg">
<g id="pills-solid 1" clip-path="url(#clip0_285_3488)">
<path id="Vector" d="M17.6518 15C13.5339 15 10.193 18.3594 10.193 22.5V40H25.1105V22.5C25.1105 18.3594 21.7696 15 17.6518 15ZM0.248047 22.5C0.248047 12.8281 8.03311 5 17.6518 5C27.2705 5 35.0555 12.8281 35.0555 22.5V57.5C35.0555 67.1719 27.2705 75 17.6518 75C8.03311 75 0.248047 67.1719 0.248047 57.5V22.5ZM86.4743 62.4062C85.371 64.3281 82.7915 64.4531 81.2221 62.8906L52.0708 33.5781C50.5169 32.0156 50.6257 29.4062 52.5525 28.2969C56.1886 26.2031 60.3997 25 64.8905 25C78.627 25 89.753 36.1875 89.753 50C89.753 54.5156 88.5565 58.75 86.4743 62.4062ZM77.2285 71.7031C73.5924 73.7969 69.3813 75 64.8905 75C51.154 75 40.028 63.8125 40.028 50C40.028 45.4844 41.2245 41.25 43.3068 37.5938C44.41 35.6719 46.9895 35.5469 48.559 37.1094L77.7102 66.4219C79.2641 67.9844 79.1554 70.5938 77.2285 71.7031Z" fill="url(#paint0_linear_285_3488)"/>
</g>
<defs>
<linearGradient id="paint0_linear_285_3488" x1="0.248048" y1="11.125" x2="56.4869" y2="96.8291" gradientUnits="userSpaceOnUse">
<stop stop-color="#FBDF97"/>
<stop offset="0.489583" stop-color="#FCB603"/>
<stop offset="1" stop-color="#FF7C02"/>
</linearGradient>
<clipPath id="clip0_285_3488">
<rect width="89.505" height="80" fill="white" transform="translate(0.248047)"/>
</clipPath>
</defs>
</svg>
