<svg width="60" height="84" viewBox="0 0 60 84" fill="none" xmlns="http://www.w3.org/2000/svg">
<path id="&#227;&#129;&#130;&#227;&#129;&#132;&#227;&#129;&#138;" d="M33.7031 81.4608C41.7187 70.9845 60 45.5933 60 31.3311C60 14.0337 46.5625 0 30 0C13.4375 0 0 14.0337 0 31.3311C0 45.5933 18.2812 70.9845 26.2969 81.4608C28.2188 83.9575 31.7812 83.9575 33.7031 81.4608ZM30 20.8874C32.6522 20.8874 35.1957 21.9877 37.0711 23.9463C38.9464 25.9048 40 28.5612 40 31.3311C40 34.1009 38.9464 36.7573 37.0711 38.7159C35.1957 40.6745 32.6522 41.7748 30 41.7748C27.3478 41.7748 24.8043 40.6745 22.9289 38.7159C21.0536 36.7573 20 34.1009 20 31.3311C20 28.5612 21.0536 25.9048 22.9289 23.9463C24.8043 21.9877 27.3478 20.8874 30 20.8874Z" fill="#AB8E6C"/>
</svg>
