<svg width="55" height="76" viewBox="0 0 55 76" fill="none" xmlns="http://www.w3.org/2000/svg">
<path id="Vector" d="M30.8945 74.2923C38.2422 64.7378 55 41.581 55 28.5739C55 12.7987 42.6823 0 27.5 0C12.3177 0 0 12.7987 0 28.5739C0 41.581 16.7578 64.7378 24.1055 74.2923C25.8672 76.5692 29.1328 76.5692 30.8945 74.2923ZM27.5 19.0493C29.9312 19.0493 32.2627 20.0528 33.9818 21.839C35.7009 23.6252 36.6667 26.0479 36.6667 28.5739C36.6667 31.1 35.7009 33.5227 33.9818 35.3089C32.2627 37.0951 29.9312 38.0986 27.5 38.0986C25.0688 38.0986 22.7373 37.0951 21.0182 35.3089C19.2991 33.5227 18.3333 31.1 18.3333 28.5739C18.3333 26.0479 19.2991 23.6252 21.0182 21.839C22.7373 20.0528 25.0688 19.0493 27.5 19.0493Z" fill="#ED6A6A"/>
</svg>
