<svg version="1.1" id="Layer_1" xmlns="http://www.w3.org/2000/svg" xmlns:xlink="http://www.w3.org/1999/xlink" x="0px" y="0px"
	 width="100%" viewBox="0 0 2763 2664" enable-background="new 0 0 2763 2664" xml:space="preserve">
<path fill="#FFFFFF" opacity="1.000000" stroke="none"
	d="
M1758.000000,2.000001 
	C2093.914795,2.000000 2429.829834,2.000000 2766.000000,2.000000 
	C2766.000000,760.722717 2766.000000,1519.445435 2765.218506,2278.795898 
	C2764.146240,2275.781738 2764.260742,2272.053223 2763.504883,2268.510254 
	C2749.270996,2201.787109 2716.253906,2147.787842 2656.714355,2112.018311 
	C2628.494629,2095.064697 2597.770020,2086.481689 2564.839844,2086.377930 
	C2538.924316,2086.296143 2514.198730,2092.206543 2490.536621,2102.603271 
	C2414.547852,2135.990723 2338.587891,2169.443604 2262.606934,2202.849121 
	C2253.613281,2206.802979 2244.559082,2210.618652 2235.246338,2214.621582 
	C2224.523438,2178.657227 2207.550293,2147.477783 2180.714355,2122.186035 
	C2147.634277,2091.009766 2108.435791,2073.916748 2062.916260,2073.800049 
	C1917.949585,2073.428955 1772.981323,2073.671875 1628.013794,2073.657959 
	C1573.825073,2073.652832 1529.103149,2095.049072 1493.686646,2135.203857 
	C1456.513794,2177.350098 1442.921143,2228.349609 1442.505615,2283.420654 
	C1442.423706,2294.273926 1444.166138,2305.198730 1445.723145,2315.996094 
	C1452.845093,2365.386230 1473.395386,2408.002197 1511.015137,2441.415771 
	C1543.275635,2470.068604 1581.249268,2485.436523 1624.501709,2485.558105 
	C1744.807129,2485.895752 1865.114136,2485.675293 1985.420532,2485.675293 
	C1989.338013,2485.675293 1993.255371,2485.675293 1997.086548,2485.675293 
	C1997.615234,2487.975098 1997.912964,2489.240479 1998.197021,2490.509277 
	C2009.486206,2540.929443 2033.076660,2584.315186 2072.163330,2618.614746 
	C2097.052979,2640.455811 2125.316650,2655.977539 2158.101807,2662.565674 
	C2162.135010,2663.376221 2166.037109,2664.839111 2170.000000,2666.000000 
	C1447.333374,2666.000000 724.666626,2666.000000 2.000000,2666.000000 
	C2.000000,2592.447510 2.000000,2519.139648 2.926995,2444.767090 
	C453.496887,2443.692383 903.139832,2443.682861 1352.782715,2443.663086 
	C1355.107422,2443.662842 1357.432861,2443.524902 1359.756226,2443.416016 
	C1360.044556,2443.402344 1360.386353,2443.230225 1360.588257,2443.020752 
	C1360.807739,2442.792969 1360.892822,2442.435791 1361.251953,2441.683594 
	C1333.797363,2388.947754 1321.890503,2332.113281 1322.026855,2272.022461 
	C938.889404,2272.022461 557.042664,2272.022461 175.002106,2272.022461 
	C175.002106,1572.255127 175.002106,873.186462 175.002106,174.347717 
	C646.138000,174.347717 1116.607178,174.347717 1587.730347,174.347717 
	C1587.730347,557.239624 1587.730347,939.457092 1587.730347,1323.198120 
	C1643.092529,1301.717285 1699.611938,1290.049805 1758.335449,1285.561035 
	C1758.335449,1280.787598 1758.335327,1276.850586 1758.335327,1272.913574 
	C1758.335327,852.933838 1758.336182,432.954041 1758.321411,12.974285 
	C1758.321289,9.316187 1758.111694,5.658096 1758.000000,2.000001 
M1598.834106,1449.865234 
	C1586.891602,1457.076904 1574.470947,1463.611084 1563.101440,1471.634888 
	C1535.278320,1491.270386 1512.119873,1515.231689 1497.922485,1546.780518 
	C1492.740723,1558.295288 1487.665771,1569.901367 1487.664185,1582.904419 
	C1487.655518,1652.234863 1487.635742,1721.565186 1487.719116,1790.895508 
	C1487.724243,1795.180664 1488.048096,1799.602905 1489.123901,1803.726440 
	C1494.916870,1825.927612 1505.335205,1845.822510 1519.995361,1863.455444 
	C1546.289062,1895.080444 1579.446167,1917.322998 1616.753906,1933.796021 
	C1667.154053,1956.049438 1720.156494,1966.944824 1774.982300,1969.698608 
	C1820.941284,1972.007324 1866.609131,1969.751099 1911.719971,1960.115356 
	C1954.869629,1950.898315 1996.213013,1936.835693 2033.910156,1913.340942 
	C2053.751465,1900.974609 2072.376221,1887.071411 2087.461182,1868.994019 
	C2094.251709,1860.856079 2100.539307,1852.298218 2107.227051,1843.710449 
	C2108.972656,1845.641602 2110.680664,1847.679199 2112.541504,1849.565918 
	C2126.314453,1863.528687 2139.470947,1878.180908 2154.027832,1891.274414 
	C2206.684570,1938.638062 2267.502441,1971.991089 2334.458984,1994.535034 
	C2389.650146,2013.117432 2446.096436,2021.338623 2504.148193,2014.081787 
	C2536.512451,2010.036011 2566.947998,1999.901245 2593.595947,1980.303833 
	C2605.701904,1971.400757 2617.316162,1961.826660 2624.495605,1948.289307 
	C2638.514893,1921.855103 2652.134033,1895.208862 2665.951416,1868.667236 
	C2678.998291,1843.605347 2691.618408,1818.306030 2705.287354,1793.587402 
	C2719.458496,1767.960938 2726.019531,1741.127930 2724.590088,1711.708496 
	C2723.169922,1682.476074 2714.653809,1655.513916 2701.595215,1629.935181 
	C2678.999756,1585.676270 2646.318848,1549.465088 2608.102539,1518.270020 
	C2550.153076,1470.967041 2484.900635,1437.544556 2412.617188,1418.107300 
	C2381.119385,1409.637695 2349.018066,1404.512939 2316.373535,1404.522217 
	C2300.178711,1404.526855 2283.852539,1405.701660 2267.817871,1407.979004 
	C2237.549072,1412.277588 2209.067139,1422.038696 2184.005859,1440.152832 
	C2172.100830,1448.757812 2160.875732,1458.224731 2153.315186,1471.124390 
	C2147.435791,1481.155273 2142.011475,1491.452271 2136.348633,1501.610962 
	C2128.497314,1515.696411 2120.612305,1529.763306 2112.487793,1544.291748 
	C2106.314209,1534.732422 2101.190674,1525.866089 2095.177002,1517.651489 
	C2071.585938,1485.427612 2039.783569,1463.260010 2004.427734,1446.097412 
	C1945.465332,1417.475708 1882.370605,1406.403198 1817.410645,1404.446777 
	C1803.828857,1404.037720 1790.160156,1404.711670 1776.601196,1405.775513 
	C1756.799683,1407.329224 1736.925171,1408.818115 1717.323975,1411.883179 
	C1676.424805,1418.278442 1637.117188,1430.165527 1598.834106,1449.865234 
M771.664307,872.999878 
	C771.664307,901.216858 771.664307,929.433838 771.664307,957.685791 
	C845.091187,957.685791 917.517456,957.685791 990.651123,957.685791 
	C990.651123,900.178772 990.651123,843.318420 990.651123,785.517578 
	C1048.504272,785.517578 1105.655273,785.517578 1163.057007,785.517578 
	C1163.057007,711.782227 1163.057007,638.997314 1163.057007,565.276123 
	C1105.294312,565.276123 1048.134521,565.276123 989.986206,565.276123 
	C989.986206,507.560791 989.986206,450.775970 989.986206,394.137573 
	C916.791565,394.137573 844.600952,394.137573 771.409912,394.137573 
	C771.409912,451.386932 771.409912,508.171783 771.409912,565.664307 
	C741.808044,565.664307 713.203247,565.664246 684.598450,565.664246 
	C656.068359,565.664246 627.538208,565.664307 599.071838,565.664307 
	C599.071838,639.648682 599.071838,712.410645 599.071838,786.155334 
	C656.930115,786.155334 714.056274,786.155334 771.664307,786.155334 
	C771.664307,815.090027 771.664307,843.044922 771.664307,872.999878 
M1269.000122,1487.661865 
	C969.760437,1487.661865 670.520813,1487.661865 370.925568,1487.661865 
	C370.925568,1536.666626 370.925568,1584.777588 370.925568,1633.031006 
	C716.306335,1633.031006 1061.092651,1633.031006 1405.637573,1633.031006 
	C1405.637573,1584.238281 1405.637573,1536.092896 1405.637573,1487.661865 
	C1360.291870,1487.661865 1315.645996,1487.661865 1269.000122,1487.661865 
M431.000153,1778.320068 
	C411.099243,1778.320068 391.198334,1778.320068 370.820190,1778.320068 
	C370.820190,1827.768677 370.820190,1876.224976 370.820190,1925.180664 
	C656.023071,1925.180664 940.739075,1925.180664 1225.898926,1925.180664 
	C1225.898926,1876.243896 1225.898926,1827.761963 1225.898926,1778.320068 
	C961.309265,1778.320068 697.154724,1778.320068 431.000153,1778.320068 
M430.999847,1342.333984 
	C632.505066,1342.333984 834.010254,1342.333984 1035.753906,1342.333984 
	C1035.753906,1293.037476 1035.753906,1244.617432 1035.753906,1196.304932 
	C813.775818,1196.304932 592.378540,1196.304932 370.807556,1196.304932 
	C370.807556,1245.109009 370.807556,1293.272705 370.807556,1342.333984 
	C390.510132,1342.333984 409.754974,1342.333984 430.999847,1342.333984 
z"/>
<path fill="url(#paint0_linear_360_9806)" fill-opacity="0.1"
	d="
M1757.062622,2.000001 
	C1758.111694,5.658096 1758.321289,9.316187 1758.321411,12.974285 
	C1758.336182,432.954041 1758.335327,852.933838 1758.335327,1272.913574 
	C1758.335327,1276.850586 1758.335449,1280.787598 1758.335449,1285.561035 
	C1699.611938,1290.049805 1643.092529,1301.717285 1587.730347,1323.198120 
	C1587.730347,939.457092 1587.730347,557.239624 1587.730347,174.347717 
	C1116.607178,174.347717 646.138000,174.347717 175.002106,174.347717 
	C175.002106,873.186462 175.002106,1572.255127 175.002106,2272.022461 
	C557.042664,2272.022461 938.889404,2272.022461 1322.026855,2272.022461 
	C1321.890503,2332.113281 1333.797363,2388.947754 1361.251953,2441.683594 
	C1360.892822,2442.435791 1360.807739,2442.792969 1360.588257,2443.020752 
	C1360.386353,2443.230225 1360.044556,2443.402344 1359.756226,2443.416016 
	C1357.432861,2443.524902 1355.107422,2443.662842 1352.782715,2443.663086 
	C903.139832,2443.682861 453.496887,2443.692383 2.926995,2443.851074 
	C2.000000,1630.169189 2.000000,816.338257 2.000000,2.000000 
	C586.708374,2.000000 1171.416870,2.000000 1757.062622,2.000001 
z"/>
<path fill="url(#paint0_linear_360_9806)" fill-opacity="0.1"
	d="
M2170.937256,2666.000000 
	C2166.037109,2664.839111 2162.135010,2663.376221 2158.101807,2662.565674 
	C2125.316650,2655.977539 2097.052979,2640.455811 2072.163330,2618.614746 
	C2033.076660,2584.315186 2009.486206,2540.929443 1998.197021,2490.509277 
	C1997.912964,2489.240479 1997.615234,2487.975098 1997.086548,2485.675293 
	C1993.255371,2485.675293 1989.338013,2485.675293 1985.420532,2485.675293 
	C1865.114136,2485.675293 1744.807129,2485.895752 1624.501709,2485.558105 
	C1581.249268,2485.436523 1543.275635,2470.068604 1511.015137,2441.415771 
	C1473.395386,2408.002197 1452.845093,2365.386230 1445.723145,2315.996094 
	C1444.166138,2305.198730 1442.423706,2294.273926 1442.505615,2283.420654 
	C1442.921143,2228.349609 1456.513794,2177.350098 1493.686646,2135.203857 
	C1529.103149,2095.049072 1573.825073,2073.652832 1628.013794,2073.657959 
	C1772.981323,2073.671875 1917.949585,2073.428955 2062.916260,2073.800049 
	C2108.435791,2073.916748 2147.634277,2091.009766 2180.714355,2122.186035 
	C2207.550293,2147.477783 2224.523438,2178.657227 2235.246338,2214.621582 
	C2244.559082,2210.618652 2253.613281,2206.802979 2262.606934,2202.849121 
	C2338.587891,2169.443604 2414.547852,2135.990723 2490.536621,2102.603271 
	C2514.198730,2092.206543 2538.924316,2086.296143 2564.839844,2086.377930 
	C2597.770020,2086.481689 2628.494629,2095.064697 2656.714355,2112.018311 
	C2716.253906,2147.787842 2749.270996,2201.787109 2763.504883,2268.510254 
	C2764.260742,2272.053223 2764.146240,2275.781738 2765.218506,2279.711914 
	C2766.000000,2299.375244 2766.000000,2318.750244 2765.235840,2339.327637 
	C2762.901123,2348.308594 2761.915039,2356.260498 2759.665527,2363.837158 
	C2744.966309,2413.344482 2715.848633,2451.432617 2669.083252,2474.486084 
	C2645.315674,2486.202393 2620.768555,2496.349854 2596.494141,2507.024902 
	C2486.593262,2555.356689 2376.670410,2603.637939 2266.736572,2651.894775 
	C2253.324219,2657.782471 2239.430420,2662.121338 2224.854004,2664.111816 
	C2223.835938,2664.250977 2222.948242,2665.348389 2222.000000,2666.000000 
	C2205.291504,2666.000000 2188.583008,2666.000000 2170.937256,2666.000000 
M2650.120605,2212.932861 
	C2644.313477,2207.032715 2638.895752,2200.677490 2632.627686,2195.315918 
	C2612.550293,2178.142334 2589.515869,2168.033447 2562.688477,2168.405029 
	C2548.560303,2168.600586 2535.289551,2172.883057 2522.443359,2178.516113 
	C2471.087402,2201.036133 2419.724609,2223.540527 2368.388184,2246.104492 
	C2357.561768,2250.863037 2346.836182,2255.850098 2335.889648,2260.811035 
	C2369.311035,2336.928467 2402.343506,2412.160400 2435.389160,2487.422852 
	C2437.774414,2486.645020 2439.025635,2486.350830 2440.183105,2485.842773 
	C2501.860596,2458.761230 2563.504150,2431.601562 2625.217041,2404.601074 
	C2643.444092,2396.625977 2657.948486,2384.453613 2668.680176,2367.755859 
	C2684.246338,2343.535645 2687.031250,2316.627441 2683.380859,2289.074951 
	C2679.694580,2261.251465 2668.373291,2236.229004 2650.120605,2212.932861 
M1951.000122,2155.673096 
	C1917.451050,2155.673096 1883.902100,2155.673096 1850.286743,2155.673096 
	C1850.286743,2238.778076 1850.286743,2320.884521 1850.286743,2403.054199 
	C1899.729370,2403.054199 1948.548584,2403.054199 1997.121216,2403.054199 
	C1997.625488,2401.838623 1997.971924,2401.251221 1998.117188,2400.617432 
	C2012.298096,2338.777832 2048.780273,2295.771973 2107.153320,2271.077148 
	C2124.221680,2263.856201 2141.063721,2256.100586 2158.281982,2248.469238 
	C2155.891602,2233.443604 2150.867432,2219.764160 2143.305176,2207.231445 
	C2123.532959,2174.463623 2095.529541,2155.348633 2055.988525,2155.623291 
	C2021.660645,2155.862061 1987.329712,2155.673096 1951.000122,2155.673096 
z"/>
<path fill="#FEFEFE" opacity="1.000000" stroke="none"
	d="
M2222.937256,2666.000000 
	C2222.948242,2665.348389 2223.835938,2664.250977 2224.854004,2664.111816 
	C2239.430420,2662.121338 2253.324219,2657.782471 2266.736572,2651.894775 
	C2376.670410,2603.637939 2486.593262,2555.356689 2596.494141,2507.024902 
	C2620.768555,2496.349854 2645.315674,2486.202393 2669.083252,2474.486084 
	C2715.848633,2451.432617 2744.966309,2413.344482 2759.665527,2363.837158 
	C2761.915039,2356.260498 2762.901123,2348.308594 2765.235840,2340.265137 
	C2766.000000,2448.557373 2766.000000,2557.114502 2766.000000,2666.000000 
	C2585.291748,2666.000000 2404.583008,2666.000000 2222.937256,2666.000000 
z"/>
<path fill="url(#paint0_linear_360_9806)" fill-opacity="0.1"
	d="
M1599.498169,1449.527832 
	C1637.117188,1430.165527 1676.424805,1418.278442 1717.323975,1411.883179 
	C1736.925171,1408.818115 1756.799683,1407.329224 1776.601196,1405.775513 
	C1790.160156,1404.711670 1803.828857,1404.037720 1817.410645,1404.446777 
	C1882.370605,1406.403198 1945.465332,1417.475708 2004.427734,1446.097412 
	C2039.783569,1463.260010 2071.585938,1485.427612 2095.177002,1517.651489 
	C2101.190674,1525.866089 2106.314209,1534.732422 2112.487793,1544.291748 
	C2120.612305,1529.763306 2128.497314,1515.696411 2136.348633,1501.610962 
	C2142.011475,1491.452271 2147.435791,1481.155273 2153.315186,1471.124390 
	C2160.875732,1458.224731 2172.100830,1448.757812 2184.005859,1440.152832 
	C2209.067139,1422.038696 2237.549072,1412.277588 2267.817871,1407.979004 
	C2283.852539,1405.701660 2300.178711,1404.526855 2316.373535,1404.522217 
	C2349.018066,1404.512939 2381.119385,1409.637695 2412.617188,1418.107300 
	C2484.900635,1437.544556 2550.153076,1470.967041 2608.102539,1518.270020 
	C2646.318848,1549.465088 2678.999756,1585.676270 2701.595215,1629.935181 
	C2714.653809,1655.513916 2723.169922,1682.476074 2724.590088,1711.708496 
	C2726.019531,1741.127930 2719.458496,1767.960938 2705.287354,1793.587402 
	C2691.618408,1818.306030 2678.998291,1843.605347 2665.951416,1868.667236 
	C2652.134033,1895.208862 2638.514893,1921.855103 2624.495605,1948.289307 
	C2617.316162,1961.826660 2605.701904,1971.400757 2593.595947,1980.303833 
	C2566.947998,1999.901245 2536.512451,2010.036011 2504.148193,2014.081787 
	C2446.096436,2021.338623 2389.650146,2013.117432 2334.458984,1994.535034 
	C2267.502441,1971.991089 2206.684570,1938.638062 2154.027832,1891.274414 
	C2139.470947,1878.180908 2126.314453,1863.528687 2112.541504,1849.565918 
	C2110.680664,1847.679199 2108.972656,1845.641602 2107.227051,1843.710449 
	C2100.539307,1852.298218 2094.251709,1860.856079 2087.461182,1868.994019 
	C2072.376221,1887.071411 2053.751465,1900.974609 2033.910156,1913.340942 
	C1996.213013,1936.835693 1954.869629,1950.898315 1911.719971,1960.115356 
	C1866.609131,1969.751099 1820.941284,1972.007324 1774.982300,1969.698608 
	C1720.156494,1966.944824 1667.154053,1956.049438 1616.753906,1933.796021 
	C1579.446167,1917.322998 1546.289062,1895.080444 1519.995361,1863.455444 
	C1505.335205,1845.822510 1494.916870,1825.927612 1489.123901,1803.726440 
	C1488.048096,1799.602905 1487.724243,1795.180664 1487.719116,1790.895508 
	C1487.635742,1721.565186 1487.655518,1652.234863 1487.664185,1582.904419 
	C1487.665771,1569.901367 1492.740723,1558.295288 1497.922485,1546.780518 
	C1512.119873,1515.231689 1535.278320,1491.270386 1563.101440,1471.634888 
	C1574.470947,1463.611084 1586.891602,1457.076904 1599.498169,1449.527832 
M2260.240723,1770.799194 
	C2218.975830,1739.900146 2183.433838,1703.630859 2156.042969,1657.757812 
	C2151.857666,1666.013794 2148.416260,1672.693359 2145.073975,1679.421875 
	C2140.653320,1688.321167 2139.288330,1697.915161 2140.479980,1707.571899 
	C2142.407715,1723.192749 2147.758057,1737.800293 2155.216309,1751.686523 
	C2169.916748,1779.057007 2190.264160,1801.952148 2213.175049,1822.375000 
	C2263.639404,1867.359497 2321.871826,1898.386475 2387.303223,1915.531006 
	C2420.578125,1924.250122 2454.390137,1928.651245 2488.805664,1924.223267 
	C2505.377441,1922.091064 2521.267578,1917.595337 2535.584473,1908.382568 
	C2549.750732,1899.266968 2555.651367,1884.812866 2562.175049,1871.184082 
	C2540.700439,1870.207886 2520.078125,1870.038696 2499.607178,1868.189941 
	C2446.737305,1863.415161 2397.154785,1846.823486 2349.395996,1824.359619 
	C2318.318359,1809.742188 2289.110107,1791.920166 2260.240723,1770.799194 
M1777.338867,1805.666748 
	C1706.079468,1801.754761 1638.154419,1785.902344 1575.659790,1747.762695 
	C1575.659790,1754.088623 1575.934937,1758.762573 1575.609619,1763.394531 
	C1574.523682,1778.852661 1579.950684,1792.063599 1589.327881,1803.900269 
	C1603.004639,1821.164307 1620.493408,1833.712280 1639.871094,1843.696167 
	C1683.040649,1865.937622 1729.498901,1876.205200 1777.502930,1879.497437 
	C1820.773438,1882.465332 1863.685181,1878.948853 1905.808472,1867.956055 
	C1941.449951,1858.655029 1975.206909,1845.366699 2004.194214,1821.821777 
	C2027.418579,1802.957764 2039.799683,1779.643188 2034.737671,1748.139038 
	C2031.378906,1750.078979 2028.318481,1751.877808 2025.228271,1753.623413 
	C2021.759644,1755.583008 2018.293213,1757.549561 2014.775879,1759.418945 
	C1959.853394,1788.609863 1900.508057,1801.286499 1839.108643,1805.453735 
	C1819.250488,1806.801636 1799.223755,1805.666382 1777.338867,1805.666748 
M1947.000122,1640.322754 
	C1828.348877,1640.380127 1709.697510,1640.437012 1591.046265,1640.522339 
	C1590.831421,1640.522461 1590.592285,1640.923218 1590.408936,1641.170044 
	C1590.214600,1641.431763 1590.073853,1641.733154 1589.559082,1642.623779 
	C1595.287476,1648.278687 1600.730835,1654.583740 1607.088623,1659.766846 
	C1634.407104,1682.037720 1666.197876,1695.294189 1699.956299,1703.999756 
	C1741.954712,1714.830200 1784.560913,1719.223389 1828.046021,1716.569458 
	C1858.671753,1714.700439 1888.748291,1710.512329 1918.169067,1701.987915 
	C1950.014404,1692.760864 1980.109863,1679.804321 2005.755859,1658.166260 
	C2011.619263,1653.219360 2017.827393,1648.384399 2021.995972,1640.322876 
	C1996.864624,1640.322876 1972.932373,1640.322876 1947.000122,1640.322754 
M2256.210938,1644.744995 
	C2269.049561,1657.718262 2280.989014,1671.757324 2294.882812,1683.480225 
	C2355.058838,1734.254639 2423.780029,1767.153198 2501.949707,1779.091919 
	C2529.716797,1783.332642 2557.491455,1783.050171 2584.849121,1775.677368 
	C2589.786377,1774.346802 2594.529785,1772.295532 2600.213379,1770.274536 
	C2585.873291,1760.364990 2223.547363,1571.698853 2216.084961,1570.325928 
	C2218.753906,1578.167725 2220.968994,1585.732056 2223.879150,1593.018799 
	C2231.350586,1611.728271 2242.997559,1627.919922 2256.210938,1644.744995 
M1896.999878,1564.328247 
	C1936.479492,1564.328247 1975.959106,1564.328247 2017.099121,1564.328247 
	C2003.646606,1548.433594 1987.978149,1538.731689 1971.585449,1530.078491 
	C1929.440063,1507.831299 1883.830078,1498.089111 1836.858154,1494.558228 
	C1807.036255,1492.316528 1777.162354,1493.348633 1747.365479,1497.492188 
	C1708.538330,1502.891479 1671.318726,1512.943359 1636.639282,1531.537598 
	C1621.161011,1539.836792 1606.598267,1549.339111 1593.759521,1564.328247 
	C1695.334595,1564.328247 1795.167114,1564.328247 1896.999878,1564.328247 
M2602.182129,1682.815186 
	C2611.838623,1687.766235 2621.494873,1692.717285 2633.516113,1698.880737 
	C2630.148926,1690.385742 2627.936768,1683.886719 2625.059082,1677.697266 
	C2609.767578,1644.807495 2586.230957,1618.296875 2559.436279,1594.531982 
	C2525.315674,1564.269287 2486.708496,1540.945068 2444.759766,1523.311035 
	C2397.778076,1503.561157 2349.212402,1491.055420 2297.644775,1494.365723 
	C2284.148438,1495.232178 2270.806152,1497.153442 2257.156982,1502.930664 
	C2260.867188,1504.937622 2263.708008,1506.529053 2266.596680,1508.028320 
	C2302.588623,1526.706787 2338.611328,1545.325684 2374.578857,1564.051025 
	C2429.413086,1592.598999 2484.213623,1621.212524 2539.022217,1649.809814 
	C2559.644775,1660.569946 2580.250000,1671.362549 2602.182129,1682.815186 
z"/>
<path fill="url(#paint0_linear_360_9806)" fill-opacity="0.1"
	d="
M771.664307,871.999817 
	C771.664307,843.044922 771.664307,815.090027 771.664307,786.155334 
	C714.056274,786.155334 656.930115,786.155334 599.071838,786.155334 
	C599.071838,712.410645 599.071838,639.648682 599.071838,565.664307 
	C627.538208,565.664307 656.068359,565.664246 684.598450,565.664246 
	C713.203247,565.664246 741.808044,565.664307 771.409912,565.664307 
	C771.409912,508.171783 771.409912,451.386932 771.409912,394.137573 
	C844.600952,394.137573 916.791565,394.137573 989.986206,394.137573 
	C989.986206,450.775970 989.986206,507.560791 989.986206,565.276123 
	C1048.134521,565.276123 1105.294312,565.276123 1163.057007,565.276123 
	C1163.057007,638.997314 1163.057007,711.782227 1163.057007,785.517578 
	C1105.655273,785.517578 1048.504272,785.517578 990.651123,785.517578 
	C990.651123,843.318420 990.651123,900.178772 990.651123,957.685791 
	C917.517456,957.685791 845.091187,957.685791 771.664307,957.685791 
	C771.664307,929.433838 771.664307,901.216858 771.664307,871.999817 
z"/>
<path fill="url(#paint0_linear_360_9806)" fill-opacity="0.1"
	d="
M1270.000244,1487.661865 
	C1315.645996,1487.661865 1360.291870,1487.661865 1405.637573,1487.661865 
	C1405.637573,1536.092896 1405.637573,1584.238281 1405.637573,1633.031006 
	C1061.092651,1633.031006 716.306335,1633.031006 370.925568,1633.031006 
	C370.925568,1584.777588 370.925568,1536.666626 370.925568,1487.661865 
	C670.520813,1487.661865 969.760437,1487.661865 1270.000244,1487.661865 
z"/>
<path fill="url(#paint0_linear_360_9806)" fill-opacity="0.1"
	d="
M432.000183,1778.320068 
	C697.154724,1778.320068 961.309265,1778.320068 1225.898926,1778.320068 
	C1225.898926,1827.761963 1225.898926,1876.243896 1225.898926,1925.180664 
	C940.739075,1925.180664 656.023071,1925.180664 370.820190,1925.180664 
	C370.820190,1876.224976 370.820190,1827.768677 370.820190,1778.320068 
	C391.198334,1778.320068 411.099243,1778.320068 432.000183,1778.320068 
z"/>
<path fill="url(#paint0_linear_360_9806)" fill-opacity="0.1"
	d="
M429.999817,1342.333984 
	C409.754974,1342.333984 390.510132,1342.333984 370.807556,1342.333984 
	C370.807556,1293.272705 370.807556,1245.109009 370.807556,1196.304932 
	C592.378540,1196.304932 813.775818,1196.304932 1035.753906,1196.304932 
	C1035.753906,1244.617432 1035.753906,1293.037476 1035.753906,1342.333984 
	C834.010254,1342.333984 632.505066,1342.333984 429.999817,1342.333984 
z"/>
<path fill="#FEFEFE" opacity="1.000000" stroke="none" 
	d="
M2650.508545,2213.529541 
	C2668.373291,2236.229004 2679.694580,2261.251465 2683.380859,2289.074951 
	C2687.031250,2316.627441 2684.246338,2343.535645 2668.680176,2367.755859 
	C2657.948486,2384.453613 2643.444092,2396.625977 2625.217041,2404.601074 
	C2563.504150,2431.601562 2501.860596,2458.761230 2440.183105,2485.842773 
	C2439.025635,2486.350830 2437.774414,2486.645020 2435.389160,2487.422852 
	C2402.343506,2412.160400 2369.311035,2336.928467 2335.889648,2260.811035 
	C2346.836182,2255.850098 2357.561768,2250.863037 2368.388184,2246.104492 
	C2419.724609,2223.540527 2471.087402,2201.036133 2522.443359,2178.516113 
	C2535.289551,2172.883057 2548.560303,2168.600586 2562.688477,2168.405029 
	C2589.515869,2168.033447 2612.550293,2178.142334 2632.627686,2195.315918 
	C2638.895752,2200.677490 2644.313477,2207.032715 2650.508545,2213.529541 
z"/>
<path fill="#FEFEFE" opacity="1.000000" stroke="none" 
	d="
M1952.000244,2155.673096 
	C1987.329712,2155.673096 2021.660645,2155.862061 2055.988525,2155.623291 
	C2095.529541,2155.348633 2123.532959,2174.463623 2143.305176,2207.231445 
	C2150.867432,2219.764160 2155.891602,2233.443604 2158.281982,2248.469238 
	C2141.063721,2256.100586 2124.221680,2263.856201 2107.153320,2271.077148 
	C2048.780273,2295.771973 2012.298096,2338.777832 1998.117188,2400.617432 
	C1997.971924,2401.251221 1997.625488,2401.838623 1997.121216,2403.054199 
	C1948.548584,2403.054199 1899.729370,2403.054199 1850.286743,2403.054199 
	C1850.286743,2320.884521 1850.286743,2238.778076 1850.286743,2155.673096 
	C1883.902100,2155.673096 1917.451050,2155.673096 1952.000244,2155.673096 
z"/>
<path fill="#FCFCFC" opacity="1.000000" stroke="none" 
	d="
M2260.790527,1771.264526 
	C2289.110107,1791.920166 2318.318359,1809.742188 2349.395996,1824.359619 
	C2397.154785,1846.823486 2446.737305,1863.415161 2499.607178,1868.189941 
	C2520.078125,1870.038696 2540.700439,1870.207886 2562.175049,1871.184082 
	C2555.651367,1884.812866 2549.750732,1899.266968 2535.584473,1908.382568 
	C2521.267578,1917.595337 2505.377441,1922.091064 2488.805664,1924.223267 
	C2454.390137,1928.651245 2420.578125,1924.250122 2387.303223,1915.531006 
	C2321.871826,1898.386475 2263.639404,1867.359497 2213.175049,1822.375000 
	C2190.264160,1801.952148 2169.916748,1779.057007 2155.216309,1751.686523 
	C2147.758057,1737.800293 2142.407715,1723.192749 2140.479980,1707.571899 
	C2139.288330,1697.915161 2140.653320,1688.321167 2145.073975,1679.421875 
	C2148.416260,1672.693359 2151.857666,1666.013794 2156.042969,1657.757812 
	C2183.433838,1703.630859 2218.975830,1739.900146 2260.790527,1771.264526 
z"/>
<path fill="#FDFDFD" opacity="1.000000" stroke="none" 
	d="
M1778.306519,1805.666870 
	C1799.223755,1805.666382 1819.250488,1806.801636 1839.108643,1805.453735 
	C1900.508057,1801.286499 1959.853394,1788.609863 2014.775879,1759.418945 
	C2018.293213,1757.549561 2021.759644,1755.583008 2025.228271,1753.623413 
	C2028.318481,1751.877808 2031.378906,1750.078979 2034.737671,1748.139038 
	C2039.799683,1779.643188 2027.418579,1802.957764 2004.194214,1821.821777 
	C1975.206909,1845.366699 1941.449951,1858.655029 1905.808472,1867.956055 
	C1863.685181,1878.948853 1820.773438,1882.465332 1777.502930,1879.497437 
	C1729.498901,1876.205200 1683.040649,1865.937622 1639.871094,1843.696167 
	C1620.493408,1833.712280 1603.004639,1821.164307 1589.327881,1803.900269 
	C1579.950684,1792.063599 1574.523682,1778.852661 1575.609619,1763.394531 
	C1575.934937,1758.762573 1575.659790,1754.088623 1575.659790,1747.762695 
	C1638.154419,1785.902344 1706.079468,1801.754761 1778.306519,1805.666870 
z"/>
<path fill="#FBFBFB" opacity="1.000000" stroke="none" 
	d="
M1948.000244,1640.322754 
	C1972.932373,1640.322876 1996.864624,1640.322876 2021.995972,1640.322876 
	C2017.827393,1648.384399 2011.619263,1653.219360 2005.755859,1658.166260 
	C1980.109863,1679.804321 1950.014404,1692.760864 1918.169067,1701.987915 
	C1888.748291,1710.512329 1858.671753,1714.700439 1828.046021,1716.569458 
	C1784.560913,1719.223389 1741.954712,1714.830200 1699.956299,1703.999756 
	C1666.197876,1695.294189 1634.407104,1682.037720 1607.088623,1659.766846 
	C1600.730835,1654.583740 1595.287476,1648.278687 1589.559082,1642.623779 
	C1590.073853,1641.733154 1590.214600,1641.431763 1590.408936,1641.170044 
	C1590.592285,1640.923218 1590.831421,1640.522461 1591.046265,1640.522339 
	C1709.697510,1640.437012 1828.348877,1640.380127 1948.000244,1640.322754 
z"/>
<path fill="#FCFCFC" opacity="1.000000" stroke="none" 
	d="
M2255.708984,1644.240723 
	C2242.997559,1627.919922 2231.350586,1611.728271 2223.879150,1593.018799 
	C2220.968994,1585.732056 2218.753906,1578.167725 2216.084961,1570.325928 
	C2223.547363,1571.698853 2585.873291,1760.364990 2600.213379,1770.274536 
	C2594.529785,1772.295532 2589.786377,1774.346802 2584.849121,1775.677368 
	C2557.491455,1783.050171 2529.716797,1783.332642 2501.949707,1779.091919 
	C2423.780029,1767.153198 2355.058838,1734.254639 2294.882812,1683.480225 
	C2280.989014,1671.757324 2269.049561,1657.718262 2255.708984,1644.240723 
z"/>
<path fill="#FEFEFE" opacity="1.000000" stroke="none"
	d="
M1895.999756,1564.328247 
	C1795.167114,1564.328247 1695.334595,1564.328247 1593.759521,1564.328247 
	C1606.598267,1549.339111 1621.161011,1539.836792 1636.639282,1531.537598 
	C1671.318726,1512.943359 1708.538330,1502.891479 1747.365479,1497.492188 
	C1777.162354,1493.348633 1807.036255,1492.316528 1836.858154,1494.558228 
	C1883.830078,1498.089111 1929.440063,1507.831299 1971.585449,1530.078491 
	C1987.978149,1538.731689 2003.646606,1548.433594 2017.099121,1564.328247 
	C1975.959106,1564.328247 1936.479492,1564.328247 1895.999756,1564.328247 
z"/>
<path fill="#FCFCFC" opacity="1.000000" stroke="none"
	d="
M2601.522705,1682.477783 
	C2580.250000,1671.362549 2559.644775,1660.569946 2539.022217,1649.809814 
	C2484.213623,1621.212524 2429.413086,1592.598999 2374.578857,1564.051025 
	C2338.611328,1545.325684 2302.588623,1526.706787 2266.596680,1508.028320 
	C2263.708008,1506.529053 2260.867188,1504.937622 2257.156982,1502.930664 
	C2270.806152,1497.153442 2284.148438,1495.232178 2297.644775,1494.365723 
	C2349.212402,1491.055420 2397.778076,1503.561157 2444.759766,1523.311035 
	C2486.708496,1540.945068 2525.315674,1564.269287 2559.436279,1594.531982 
	C2586.230957,1618.296875 2609.767578,1644.807495 2625.059082,1677.697266 
	C2627.936768,1683.886719 2630.148926,1690.385742 2633.516113,1698.880737 
	C2621.494873,1692.717285 2611.838623,1687.766235 2601.522705,1682.477783 
z"
/>
    <defs>
    <linearGradient id="paint0_linear_360_9806" x1="-6.01945e-08" y1="107.5" x2="277.079" y2="109.599" gradientUnits="userSpaceOnUse">
      <stop stop-color="#00C2FF"/>
        <stop offset="1" stop-color="#0057FF"/>
    </linearGradient>
  </defs>
</svg>