<svg width="32" height="33" viewBox="0 0 32 33" fill="none" xmlns="http://www.w3.org/2000/svg">
<g id="Group 117">
<rect id="Rectangle 69" y="0.369141" width="31.6413" height="32.3413" rx="5" fill="#5EAED2"/>
<path id="Vector" d="M11.4073 4.58581C11.0614 3.66673 10.1495 3.17755 9.27809 3.43943L5.32514 4.62534C4.54353 4.86252 4 5.64324 4 6.53267C4 18.7574 13.0109 28.6696 24.1241 28.6696C24.9327 28.6696 25.6424 28.0717 25.858 27.2119L26.9361 22.8636C27.1742 21.905 26.7295 20.9019 25.894 20.5214L21.5816 18.5449C20.8495 18.2089 20.0005 18.4411 19.5019 19.1181L17.6871 21.5541C14.5247 19.9087 11.9643 17.0922 10.4685 13.6135L12.683 11.6222C13.2984 11.0688 13.5095 10.1398 13.2041 9.33437L11.4073 4.59075V4.58581Z" fill="white"/>
</g>
</svg>
