<svg width="33" height="34" viewBox="0 0 33 34" fill="none" xmlns="http://www.w3.org/2000/svg">
<g id="Group 118">
<rect id="Rectangle 68" y="0.369141" width="32.1171" height="32.8277" rx="5" fill="#5EAED2"/>
<path id="Vector" d="M10.75 6.49414V11.1816H13.625V6.49414H22.3713L23.6875 7.92481V11.1816H26.5625V7.92481C26.5625 7.09473 26.2615 6.29883 25.7225 5.71289L24.4062 4.28223C23.8672 3.69629 23.135 3.36914 22.3713 3.36914H13.625C12.0393 3.36914 10.75 4.77051 10.75 6.49414ZM5 11.1816V26.8066C5 27.6709 5.64238 28.3691 6.4375 28.3691H7.875C8.67012 28.3691 9.3125 27.6709 9.3125 26.8066V11.1816C9.3125 10.3174 8.67012 9.61914 7.875 9.61914H6.4375C5.64238 9.61914 5 10.3174 5 11.1816ZM26.5625 12.7441H10.75V26.8066C10.75 27.6709 11.3924 28.3691 12.1875 28.3691H26.5625C27.3576 28.3691 28 27.6709 28 26.8066V14.3066C28 13.4424 27.3576 12.7441 26.5625 12.7441ZM16.5 15.8691C16.8812 15.8691 17.2469 16.0338 17.5165 16.3268C17.786 16.6198 17.9375 17.0172 17.9375 17.4316C17.9375 17.846 17.786 18.2435 17.5165 18.5365C17.2469 18.8295 16.8812 18.9941 16.5 18.9941C16.1188 18.9941 15.7531 18.8295 15.4835 18.5365C15.214 18.2435 15.0625 17.846 15.0625 17.4316C15.0625 17.0172 15.214 16.6198 15.4835 16.3268C15.7531 16.0338 16.1188 15.8691 16.5 15.8691ZM20.8125 17.4316C20.8125 17.0172 20.964 16.6198 21.2335 16.3268C21.5031 16.0338 21.8688 15.8691 22.25 15.8691C22.6312 15.8691 22.9969 16.0338 23.2665 16.3268C23.536 16.6198 23.6875 17.0172 23.6875 17.4316C23.6875 17.846 23.536 18.2435 23.2665 18.5365C22.9969 18.8295 22.6312 18.9941 22.25 18.9941C21.8688 18.9941 21.5031 18.8295 21.2335 18.5365C20.964 18.2435 20.8125 17.846 20.8125 17.4316ZM22.25 22.1191C22.6312 22.1191 22.9969 22.2838 23.2665 22.5768C23.536 22.8698 23.6875 23.2672 23.6875 23.6816C23.6875 24.096 23.536 24.4935 23.2665 24.7865C22.9969 25.0795 22.6312 25.2441 22.25 25.2441C21.8688 25.2441 21.5031 25.0795 21.2335 24.7865C20.964 24.4935 20.8125 24.096 20.8125 23.6816C20.8125 23.2672 20.964 22.8698 21.2335 22.5768C21.5031 22.2838 21.8688 22.1191 22.25 22.1191ZM15.0625 23.6816C15.0625 23.2672 15.214 22.8698 15.4835 22.5768C15.7531 22.2838 16.1188 22.1191 16.5 22.1191C16.8812 22.1191 17.2469 22.2838 17.5165 22.5768C17.786 22.8698 17.9375 23.2672 17.9375 23.6816C17.9375 24.096 17.786 24.4935 17.5165 24.7865C17.2469 25.0795 16.8812 25.2441 16.5 25.2441C16.1188 25.2441 15.7531 25.0795 15.4835 24.7865C15.214 24.4935 15.0625 24.096 15.0625 23.6816Z" fill="white"/>
</g>
</svg>
